<svg width="24" height="24" viewBox="0 0 24 24" xmlns="http://www.w3.org/2000/svg">
<path d="M10.5557 7.0166H11.8818V12.8066C11.8818 13.8138 11.7679 14.6136 11.54 15.2061C11.3122 15.7985 10.8997 16.2816 10.3027 16.6553C9.71029 17.0244 8.93099 17.209 7.96484 17.209C7.02604 17.209 6.25814 17.0472 5.66113 16.7236C5.06413 16.4001 4.63802 15.9329 4.38281 15.3223C4.1276 14.707 4 13.8685 4 12.8066V7.0166H5.32617V12.7998C5.32617 13.6702 5.40592 14.3128 5.56543 14.7275C5.72949 15.1377 6.00749 15.4544 6.39941 15.6777C6.7959 15.901 7.27897 16.0127 7.84863 16.0127C8.82389 16.0127 9.51888 15.7917 9.93359 15.3496C10.3483 14.9076 10.5557 14.0576 10.5557 12.7998V7.0166ZM6.00293 6.40137V5H7.28809V6.40137H6.00293ZM8.55273 6.40137V5H9.83789V6.40137H8.55273Z"/>
<path d="M17.542 17.0381V14.6387H13.1943V13.5107L17.7676 7.0166H18.7725V13.5107H20.126V14.6387H18.7725V17.0381H17.542ZM17.542 13.5107V8.99219L14.4043 13.5107H17.542Z"/>
</svg>
