<svg xmlns="http://www.w3.org/2000/svg" xmlns:xlink="http://www.w3.org/1999/xlink" width="24" height="24" viewBox="0 0 24 24">
  <defs>
    <clipPath id="clip-path">
      <rect id="Rechteck_36" data-name="Rechteck 36" width="20" height="20" transform="translate(617 496)" fill="none"/>
    </clipPath>
  </defs>
  <g id="space04" transform="translate(-580 -494)">
    <rect id="Rechteck_33" data-name="Rechteck 33" width="24" height="24" transform="translate(580 494)" fill="#fff"/>
    <g id="Gruppe_11" data-name="Gruppe 11" transform="translate(-68.5 -0.5)">
      <path id="Linie_1" data-name="Linie 1" d="M2,.5H0A.5.5,0,0,1-.5,0,.5.5,0,0,1,0-.5H2a.5.5,0,0,1,.5.5A.5.5,0,0,1,2,.5Z" transform="translate(651.5 506.5)"/>
      <path id="Linie_1-2" data-name="Linie 1" d="M2,.5H0A.5.5,0,0,1-.5,0,.5.5,0,0,1,0-.5H2a.5.5,0,0,1,.5.5A.5.5,0,0,1,2,.5Z" transform="translate(655.5 506.5)"/>
      <path id="Linie_1-3" data-name="Linie 1" d="M2,.5H0A.5.5,0,0,1-.5,0,.5.5,0,0,1,0-.5H2a.5.5,0,0,1,.5.5A.5.5,0,0,1,2,.5Z" transform="translate(659.5 506.5)"/>
      <path id="Linie_1-4" data-name="Linie 1" d="M2,.5H0A.5.5,0,0,1-.5,0,.5.5,0,0,1,0-.5H2a.5.5,0,0,1,.5.5A.5.5,0,0,1,2,.5Z" transform="translate(663.5 506.5)"/>
      <path id="Linie_1-5" data-name="Linie 1" d="M2,.5H0A.5.5,0,0,1-.5,0,.5.5,0,0,1,0-.5H2a.5.5,0,0,1,.5.5A.5.5,0,0,1,2,.5Z" transform="translate(667.5 506.5)"/>
    </g>
    <g id="Gruppe_maskieren_2" data-name="Gruppe maskieren 2" transform="translate(-35)" clip-path="url(#clip-path)">
      <g id="Gruppe_12" data-name="Gruppe 12" transform="translate(-33 -3.5)">
        <g id="Rechteck_34" data-name="Rechteck 34" transform="translate(661.5 497)" fill="none" stroke="#000" stroke-linecap="round" stroke-linejoin="round" stroke-width="1">
          <rect width="8" height="6" rx="2" stroke="none"/>
          <rect x="0.5" y="0.5" width="7" height="5" rx="1.5" fill="none"/>
        </g>
        <line id="Linie_26" data-name="Linie 26" x2="8" transform="translate(651 498)" fill="none" stroke="#000" stroke-linecap="round" stroke-width="1"/>
        <line id="Linie_27" data-name="Linie 27" x2="7" transform="translate(651 499.5)" fill="none" stroke="#000" stroke-linecap="round" stroke-width="1"/>
        <line id="Linie_28" data-name="Linie 28" x2="8" transform="translate(651 501)" fill="none" stroke="#000" stroke-linecap="round" stroke-width="1"/>
      </g>
      <g id="Gruppe_13" data-name="Gruppe 13" transform="translate(-33.25 4.5)">
        <g id="Rechteck_35" data-name="Rechteck 35" transform="translate(651 509)" fill="none" stroke="#000" stroke-linecap="round" stroke-linejoin="round" stroke-width="1">
          <rect width="8" height="6" rx="2" stroke="none"/>
          <rect x="0.5" y="0.5" width="7" height="5" rx="1.5" fill="none"/>
        </g>
        <line id="Linie_29" data-name="Linie 29" x2="8" transform="translate(661.5 510)" fill="none" stroke="#000" stroke-linecap="round" stroke-width="1"/>
        <line id="Linie_30" data-name="Linie 30" x2="7" transform="translate(661.5 511.5)" fill="none" stroke="#000" stroke-linecap="round" stroke-width="1"/>
        <line id="Linie_31" data-name="Linie 31" x2="8" transform="translate(661.5 513)" fill="none" stroke="#000" stroke-linecap="round" stroke-width="1"/>
      </g>
    </g>
  </g>
</svg>
