<?xml version="1.0" encoding="UTF-8"?><svg id="a" xmlns="http://www.w3.org/2000/svg" viewBox="0 0 1000 1000"><defs><style>.b{fill:#fff;}</style></defs><path d="M.5,999.5V333.3C.5,244.43,35.11,160.87,97.97,98,160.83,35.13,244.41.5,333.3.5h666.2v665.99l-86.6,86.6,75.89,75.89c14.55,14.55,14.55,38.22,0,52.77-7.05,7.05-16.42,10.93-26.38,10.93s-19.34-3.88-26.38-10.93l-75.89-75.89-53.98,53.98,75.89,75.89c7.05,7.05,10.93,16.42,10.93,26.38s-3.88,19.34-10.93,26.38-16.42,10.93-26.38,10.93-19.34-3.88-26.38-10.93l-75.89-75.89-86.9,86.9H.5Z"/><path class="b" d="M999,1v665.29l-86.1,86.1-.71.71.71.71,75.54,75.54c14.35,14.35,14.35,37.71,0,52.06-6.95,6.95-16.2,10.78-26.03,10.78s-19.08-3.83-26.03-10.78l-75.54-75.54-.71-.71-.71.71-53.27,53.27-.71.71.71.71,75.54,75.54c14.35,14.35,14.35,37.71,0,52.06-6.95,6.95-16.2,10.78-26.03,10.78s-19.08-3.83-26.03-10.78l-75.54-75.54-.71-.71-.71.71-86.4,86.4H1V333.3c0-44.84,8.78-88.35,26.11-129.31,16.74-39.57,40.69-75.11,71.21-105.63,30.52-30.53,66.06-54.49,105.62-71.23C244.91,9.79,288.44,1,333.3,1h665.7M1000,0H333.3C149.2,0,0,149.3,0,333.3v666.7h666.7l86.69-86.69,75.54,75.54c7.38,7.38,17.06,11.08,26.74,11.08s19.35-3.69,26.74-11.08c14.77-14.77,14.77-38.71,0-53.48l-75.54-75.54,53.27-53.27,75.54,75.54c7.38,7.38,17.06,11.08,26.74,11.08s19.35-3.69,26.74-11.08h0c14.77-14.77,14.77-38.71,0-53.48l-75.54-75.54,86.39-86.39V0h0Z"/></svg>