<?xml version="1.0" encoding="UTF-8"?><svg id="a" xmlns="http://www.w3.org/2000/svg" width="48" height="47.99" viewBox="0 0 48 47.99"><defs><style>.b{fill:#fff;}</style></defs><path d="M.02,47.96V15.99C.02,11.73,1.68,7.72,4.7,4.7,7.72,1.69,11.73.02,15.99.02h31.97v31.96l-4.16,4.16,3.64,3.64c.7.7.7,1.83,0,2.53-.34.34-.79.52-1.27.52s-.93-.19-1.27-.52l-3.64-3.64-2.59,2.59,3.64,3.64c.34.34.52.79.52,1.27s-.19.93-.52,1.27-.79.52-1.27.52-.93-.19-1.27-.52l-3.64-3.64-4.17,4.17H.02Z"/><path class="b" d="M47.94.05v31.93l-4.13,4.13-.03.03.03.03,3.62,3.62c.69.69.69,1.81,0,2.5-.33.33-.78.52-1.25.52s-.92-.18-1.25-.52l-3.62-3.62-.03-.03-.03.03-2.56,2.56-.03.03.03.03,3.62,3.62c.69.69.69,1.81,0,2.5-.33.33-.78.52-1.25.52s-.92-.18-1.25-.52l-3.62-3.62-.03-.03-.03.03-4.15,4.15H.05V15.99c0-2.15.42-4.24,1.25-6.21.8-1.9,1.95-3.6,3.42-5.07,1.46-1.47,3.17-2.61,5.07-3.42C11.75.47,13.84.05,15.99.05h31.95M47.99,0H15.99C7.16,0,0,7.16,0,15.99v31.99h31.99l4.16-4.16,3.62,3.62c.35.35.82.53,1.28.53s.93-.18,1.28-.53c.71-.71.71-1.86,0-2.57l-3.62-3.62,2.56-2.56,3.62,3.62c.35.35.82.53,1.28.53s.93-.18,1.28-.53h0c.71-.71.71-1.86,0-2.57l-3.62-3.62,4.15-4.15V0h0Z"/></svg>