<svg xmlns="http://www.w3.org/2000/svg" width="24" height="24" viewBox="0 0 20.45 24">
<g id="Layer_2" data-name="Layer 2">
<g id="Layer_1-2" data-name="Layer 1">
<path d="M9.08,13.82l.78-.71A6.24,6.24,0,0,1,9,11.5a6.18,6.18,0,0,0,.3-3,1.09,1.09,0,0,0-2.1-.3,8.2,8.2,0,0,0,.4,3.6c-.6,1.3-1.4,3.1-2,4.2-1,.5-2.5,1.4-2.8,2.5a.82.82,0,0,0,.29.8l.85-.77A6.52,6.52,0,0,1,5.6,16.7c-.22.34-.42.62-.6.86l2.05-1.88,0,0a16,16,0,0,0,1.3-3A11.51,11.51,0,0,0,9.08,13.82ZM8.4,8.2c.4,0,.4,1.8.1,2.2C8.2,9.7,8.2,8.2,8.4,8.2Z"/>
<path d="M1.5,21.8V2.3a.68.68,0,0,1,.7-.7h8.2V6.5a1.11,1.11,0,0,0,1.1,1.1h4.9v5.18l1.5,1.35V6.2a2.27,2.27,0,0,0-.6-1.6L13.4.7A2.36,2.36,0,0,0,11.8,0H2.2A2.24,2.24,0,0,0,0,2.3V21.8A2.22,2.22,0,0,0,2.2,24H6.9V22.5H2.2A.68.68,0,0,1,1.5,21.8ZM11.9,1.5c.1,0,.2.1.3.2l4,4c.1.1.2.2.2.3H11.9Z"/>
<polygon points="13.35 12 6.25 18.4 8.45 18.4 8.45 24 11.95 24 11.95 19.8 14.75 19.8 14.75 24 18.25 24 18.25 18.4 20.45 18.4 13.35 12"/>
</g>
</g>
</svg>
