<svg xmlns="http://www.w3.org/2000/svg" width="24" height="24" viewBox="0 0 24 24">
<path d="M3 17.5V6.04688H4.51562V10.75H10.4688V6.04688H11.9844V17.5H10.4688V12.1016H4.51562V17.5H3Z"/>
<path d="M21.3359 16.1484V17.5H13.7656C13.7552 17.1615 13.8099 16.8359 13.9297 16.5234C14.1224 16.0078 14.4297 15.5 14.8516 15C15.2786 14.5 15.8932 13.9219 16.6953 13.2656C17.9401 12.2448 18.7812 11.4375 19.2188 10.8438C19.6562 10.2448 19.875 9.67969 19.875 9.14844C19.875 8.59115 19.6745 8.1224 19.2734 7.74219C18.8776 7.35677 18.3594 7.16406 17.7188 7.16406C17.0417 7.16406 16.5 7.36719 16.0938 7.77344C15.6875 8.17969 15.4818 8.74219 15.4766 9.46094L14.0312 9.3125C14.1302 8.23438 14.5026 7.41406 15.1484 6.85156C15.7943 6.28385 16.6615 6 17.75 6C18.849 6 19.7188 6.30469 20.3594 6.91406C21 7.52344 21.3203 8.27865 21.3203 9.17969C21.3203 9.63802 21.2266 10.0885 21.0391 10.5312C20.8516 10.974 20.5391 11.4401 20.1016 11.9297C19.6693 12.4193 18.9479 13.0911 17.9375 13.9453C17.0938 14.6536 16.5521 15.1354 16.3125 15.3906C16.0729 15.6406 15.875 15.8932 15.7188 16.1484H21.3359Z"/>
</svg>
