<svg xmlns="http://www.w3.org/2000/svg" width="24" height="24" viewBox="0 0 24 24">
<path d="M10.4287 5.59277H12.1338V13.0371C12.1338 14.332 11.9873 15.3604 11.6943 16.1221C11.4014 16.8838 10.8711 17.5049 10.1035 17.9854C9.3418 18.46 8.33984 18.6973 7.09766 18.6973C5.89062 18.6973 4.90332 18.4893 4.13574 18.0732C3.36816 17.6572 2.82031 17.0566 2.49219 16.2715C2.16406 15.4805 2 14.4023 2 13.0371V5.59277H3.70508V13.0283C3.70508 14.1475 3.80762 14.9736 4.0127 15.5068C4.22363 16.0342 4.58105 16.4414 5.08496 16.7285C5.59473 17.0156 6.21582 17.1592 6.94824 17.1592C8.20215 17.1592 9.0957 16.875 9.62891 16.3066C10.1621 15.7383 10.4287 14.6455 10.4287 13.0283V5.59277ZM4.5752 4.80176V3H6.22754V4.80176H4.5752ZM7.85352 4.80176V3H9.50586V4.80176H7.85352Z"/>
<path d="M20.2988 18.4775H18.7168V8.39648C18.3359 8.75977 17.835 9.12305 17.2139 9.48633C16.5986 9.84961 16.0449 10.1221 15.5527 10.3037V8.77441C16.4375 8.3584 17.2109 7.85449 17.873 7.2627C18.5352 6.6709 19.0039 6.09668 19.2793 5.54004H20.2988V18.4775Z"/>
</svg>
