<svg xmlns="http://www.w3.org/2000/svg" width="24" height="24" viewBox="0 0 24 24">
<path d="M11.0239 6.16064H12.4448V12.3643C12.4448 13.4434 12.3228 14.3003 12.0786 14.9351C11.8345 15.5698 11.3926 16.0874 10.7529 16.4878C10.1182 16.8833 9.2832 17.0811 8.24805 17.0811C7.24219 17.0811 6.41943 16.9077 5.77979 16.561C5.14014 16.2144 4.68359 15.7139 4.41016 15.0596C4.13672 14.4004 4 13.502 4 12.3643V6.16064H5.4209V12.3569C5.4209 13.2896 5.50635 13.978 5.67725 14.4224C5.85303 14.8618 6.15088 15.2012 6.5708 15.4404C6.99561 15.6797 7.51318 15.7993 8.12354 15.7993C9.16846 15.7993 9.91309 15.5625 10.3574 15.0889C10.8018 14.6152 11.0239 13.7046 11.0239 12.3569V6.16064ZM6.146 5.50146V4H7.52295V5.50146H6.146ZM8.87793 5.50146V4H10.2549V5.50146H8.87793Z"/>
<path d="M14.2905 14.0635L15.6089 13.8877C15.7603 14.6348 16.0166 15.1743 16.3779 15.5063C16.7441 15.8335 17.1885 15.9971 17.7109 15.9971C18.3311 15.9971 18.8535 15.7822 19.2783 15.3525C19.708 14.9229 19.9229 14.3906 19.9229 13.7559C19.9229 13.1504 19.7251 12.6523 19.3296 12.2617C18.9341 11.8662 18.4312 11.6685 17.8208 11.6685C17.5718 11.6685 17.2617 11.7173 16.8906 11.8149L17.0371 10.6577C17.125 10.6675 17.1958 10.6724 17.2495 10.6724C17.811 10.6724 18.3164 10.5259 18.7656 10.2329C19.2148 9.93994 19.4395 9.48828 19.4395 8.87793C19.4395 8.39453 19.2759 7.99414 18.9487 7.67676C18.6216 7.35938 18.1992 7.20068 17.6816 7.20068C17.1689 7.20068 16.7417 7.36182 16.3999 7.68408C16.0581 8.00635 15.8384 8.48975 15.7407 9.13428L14.4224 8.8999C14.5835 8.01611 14.9497 7.33252 15.521 6.84912C16.0923 6.36084 16.8027 6.1167 17.6523 6.1167C18.2383 6.1167 18.7778 6.24365 19.271 6.49756C19.7642 6.74658 20.1401 7.08838 20.3989 7.52295C20.6626 7.95752 20.7944 8.41895 20.7944 8.90723C20.7944 9.37109 20.6699 9.79346 20.4209 10.1743C20.1719 10.5552 19.8032 10.8579 19.3149 11.0825C19.9497 11.229 20.4429 11.5342 20.7944 11.998C21.146 12.457 21.3218 13.0332 21.3218 13.7266C21.3218 14.6641 20.98 15.46 20.2964 16.1143C19.6128 16.7637 18.7485 17.0884 17.7036 17.0884C16.7612 17.0884 15.9775 16.8076 15.3525 16.2461C14.7324 15.6846 14.3784 14.957 14.2905 14.0635Z"/>
</svg>
