<svg xmlns="http://www.w3.org/2000/svg" width="24" height="24" viewBox="0 0 24 24">
<path d="M10.6191 7.72852H11.7559V12.6914C11.7559 13.5547 11.6582 14.2402 11.4629 14.748C11.2676 15.2559 10.9141 15.6699 10.4023 15.9902C9.89453 16.3066 9.22656 16.4648 8.39844 16.4648C7.59375 16.4648 6.93555 16.3262 6.42383 16.0488C5.91211 15.7715 5.54688 15.3711 5.32812 14.8477C5.10938 14.3203 5 13.6016 5 12.6914V7.72852H6.13672V12.6855C6.13672 13.4316 6.20508 13.9824 6.3418 14.3379C6.48242 14.6895 6.7207 14.9609 7.05664 15.1523C7.39648 15.3438 7.81055 15.4395 8.29883 15.4395C9.13477 15.4395 9.73047 15.25 10.0859 14.8711C10.4414 14.4922 10.6191 13.7637 10.6191 12.6855V7.72852ZM6.7168 7.20117V6H7.81836V7.20117H6.7168ZM8.90234 7.20117V6H10.0039V7.20117H8.90234Z"/>
<path d="M18.6992 9.83203L17.6504 9.91406C17.5566 9.5 17.4238 9.19922 17.252 9.01172C16.9668 8.71094 16.6152 8.56055 16.1973 8.56055C15.8613 8.56055 15.5664 8.6543 15.3125 8.8418C14.9805 9.08398 14.7188 9.4375 14.5273 9.90234C14.3359 10.3672 14.2363 11.0293 14.2285 11.8887C14.4824 11.502 14.793 11.2148 15.1602 11.0273C15.5273 10.8398 15.9121 10.7461 16.3145 10.7461C17.0176 10.7461 17.6152 11.0059 18.1074 11.5254C18.6035 12.041 18.8516 12.709 18.8516 13.5293C18.8516 14.0684 18.7344 14.5703 18.5 15.0352C18.2695 15.4961 17.9512 15.8496 17.5449 16.0957C17.1387 16.3418 16.6777 16.4648 16.1621 16.4648C15.2832 16.4648 14.5664 16.1426 14.0117 15.498C13.457 14.8496 13.1797 13.7832 13.1797 12.2988C13.1797 10.6387 13.4863 9.43164 14.0996 8.67773C14.6348 8.02148 15.3555 7.69336 16.2617 7.69336C16.9375 7.69336 17.4902 7.88281 17.9199 8.26172C18.3535 8.64062 18.6133 9.16406 18.6992 9.83203ZM14.3926 13.5352C14.3926 13.8984 14.4688 14.2461 14.6211 14.5781C14.7773 14.9102 14.9941 15.1641 15.2715 15.3398C15.5488 15.5117 15.8398 15.5977 16.1445 15.5977C16.5898 15.5977 16.9727 15.418 17.293 15.0586C17.6133 14.6992 17.7734 14.2109 17.7734 13.5938C17.7734 13 17.6152 12.5332 17.2988 12.1934C16.9824 11.8496 16.584 11.6777 16.1035 11.6777C15.627 11.6777 15.2227 11.8496 14.8906 12.1934C14.5586 12.5332 14.3926 12.9805 14.3926 13.5352Z"/>
</svg>
