<?xml version="1.0" encoding="UTF-8" standalone="no"?><!DOCTYPE svg PUBLIC "-//W3C//DTD SVG 1.1//EN" "http://www.w3.org/Graphics/SVG/1.1/DTD/svg11.dtd"><svg width="24px" height="24px" viewBox="0 0 24 24" version="1.1" xmlns="http://www.w3.org/2000/svg" xmlns:xlink="http://www.w3.org/1999/xlink" xml:space="preserve" xmlns:serif="http://www.serif.com/" style="fill-rule:evenodd;clip-rule:evenodd;stroke-linejoin:round;stroke-miterlimit:1.41421;"><path d="M15.191,0c0.125,0 0.244,0.049 0.331,0.137l3.975,3.975c0.088,0.088 0.137,0.207 0.137,0.33l0,12.433c-0.094,-0.021 -1.543,0.018 -1.556,0.012l-0.003,-11.583l-3.073,0c-0.32,0 -0.579,-0.259 -0.579,-0.579l0,-3.167l-11.366,0l0,20.883l10.991,0c0.003,0.448 0.005,1.299 0.001,1.559l-11.148,0c-0.774,0 -1.403,-0.629 -1.403,-1.402l0,-21.196c0,-0.773 0.629,-1.402 1.403,-1.402l12.29,0Zm-0.37,20.928l3.841,-3.456l3.84,3.456l-1.152,0l0,3.072l-1.92,0l0,-2.304l-1.536,0l0,2.304l-1.921,0l0,-3.072l-1.152,0Z" style="fill-rule:nonzero;"/></svg>
