<svg width="24" height="24" viewBox="0 0 24 24" xmlns="http://www.w3.org/2000/svg">
<path d="M4 16.3057V7H5.23145V10.8213H10.0684V7H11.2998V16.3057H10.0684V11.9194H5.23145V16.3057H4Z"/>
<path d="M12.8931 13.8682L14.0928 13.7666C14.1816 14.3506 14.3869 14.7907 14.7085 15.0869C15.0343 15.3789 15.4258 15.5249 15.8828 15.5249C16.4329 15.5249 16.8984 15.3175 17.2793 14.9028C17.6602 14.4881 17.8506 13.938 17.8506 13.2524C17.8506 12.6007 17.6665 12.0866 17.2983 11.71C16.9344 11.3333 16.4562 11.145 15.8638 11.145C15.4956 11.145 15.1634 11.2297 14.8672 11.3989C14.571 11.564 14.3382 11.7798 14.1689 12.0464L13.0962 11.9067L13.9976 7.12695H18.625V8.21875H14.9116L14.4102 10.7197C14.9688 10.3304 15.5549 10.1357 16.1685 10.1357C16.981 10.1357 17.6665 10.4172 18.2251 10.98C18.7837 11.5428 19.063 12.2664 19.063 13.1509C19.063 13.993 18.8175 14.7209 18.3267 15.3345C17.73 16.0877 16.9154 16.4644 15.8828 16.4644C15.0365 16.4644 14.3446 16.2274 13.8071 15.7534C13.2739 15.2795 12.9692 14.651 12.8931 13.8682Z"/>
</svg>
