<svg width="24" height="24" viewBox="0 0 24 24" xmlns="http://www.w3.org/2000/svg">
<path d="M5 16.625V8.03516H6.13672V11.5625H10.6016V8.03516H11.7383V16.625H10.6016V12.5762H6.13672V16.625H5Z"/>
<path d="M18.6816 10.1387L17.6328 10.2207C17.5391 9.80664 17.4062 9.50586 17.2344 9.31836C16.9492 9.01758 16.5977 8.86719 16.1797 8.86719C15.8438 8.86719 15.5488 8.96094 15.2949 9.14844C14.9629 9.39062 14.7012 9.74414 14.5098 10.209C14.3184 10.6738 14.2188 11.3359 14.2109 12.1953C14.4648 11.8086 14.7754 11.5215 15.1426 11.334C15.5098 11.1465 15.8945 11.0527 16.2969 11.0527C17 11.0527 17.5977 11.3125 18.0898 11.832C18.5859 12.3477 18.834 13.0156 18.834 13.8359C18.834 14.375 18.7168 14.877 18.4824 15.3418C18.252 15.8027 17.9336 16.1562 17.5273 16.4023C17.1211 16.6484 16.6602 16.7715 16.1445 16.7715C15.2656 16.7715 14.5488 16.4492 13.9941 15.8047C13.4395 15.1562 13.1621 14.0898 13.1621 12.6055C13.1621 10.9453 13.4688 9.73828 14.082 8.98438C14.6172 8.32812 15.3379 8 16.2441 8C16.9199 8 17.4727 8.18945 17.9023 8.56836C18.3359 8.94727 18.5957 9.4707 18.6816 10.1387ZM14.375 13.8418C14.375 14.2051 14.4512 14.5527 14.6035 14.8848C14.7598 15.2168 14.9766 15.4707 15.2539 15.6465C15.5312 15.8184 15.8223 15.9043 16.127 15.9043C16.5723 15.9043 16.9551 15.7246 17.2754 15.3652C17.5957 15.0059 17.7559 14.5176 17.7559 13.9004C17.7559 13.3066 17.5977 12.8398 17.2812 12.5C16.9648 12.1562 16.5664 11.9844 16.0859 11.9844C15.6094 11.9844 15.2051 12.1562 14.873 12.5C14.541 12.8398 14.375 13.2871 14.375 13.8418Z"/>
</svg>
