<?xml version="1.0" encoding="UTF-8" standalone="no"?><!DOCTYPE svg PUBLIC "-//W3C//DTD SVG 1.1//EN" "http://www.w3.org/Graphics/SVG/1.1/DTD/svg11.dtd"><svg width="24px" height="24px" viewBox="0 0 28 24" version="1.1" xmlns="http://www.w3.org/2000/svg" xmlns:xlink="http://www.w3.org/1999/xlink" xml:space="preserve" xmlns:serif="http://www.serif.com/" style="fill-rule:evenodd;clip-rule:evenodd;stroke-linejoin:round;stroke-miterlimit:1.41421;"><path d="M17.107,18.572l4.396,-3.856l4.397,3.856l-1.319,0l0,3.428l-2.199,0l0,-2.571l-1.757,0l0,2.571l-2.199,0l0,-3.428l-1.319,0Zm-0.578,3.428l-13.841,0c-0.656,0 -1.188,-0.497 -1.188,-1.111l0,-17.778c0,-0.614 0.532,-1.111 1.188,-1.111l19.007,0c0.656,0 1.188,0.497 1.188,1.111l0,10.554l-2.376,-0.005l-2.93,-1.074l-7.689,7.192l6.641,0l0,2.222Zm-12.653,-3.488l0,1.266l3.492,0l3.445,-3.222l-2.423,-2.266l-4.514,4.222Zm16.631,-14.29l-16.631,0l0,11.933l3.884,-3.633c0.348,-0.326 0.912,-0.326 1.26,0l3.053,2.855l4.874,-4.559c0.348,-0.325 0.912,-0.325 1.26,0l2.3,0.873l0,-7.469Zm-10.691,6.667c1.312,0 2.375,-0.995 2.375,-2.222c0,-1.228 -1.063,-2.223 -2.375,-2.223c-1.313,0 -2.376,0.995 -2.376,2.223c0,1.227 1.063,2.222 2.376,2.222Z" style="fill-rule:nonzero;"/></svg>
