<svg width="24" height="24" viewBox="0 0 24 24" xmlns="http://www.w3.org/2000/svg">
<path d="M8 19V7.1929H9.31815V8.30208C9.62894 7.86805 9.97991 7.54387 10.3711 7.32954C10.7622 7.10985 11.2364 7 11.7937 7C12.5224 7 13.1654 7.18754 13.7227 7.56263C14.28 7.93771 14.7006 8.46818 14.9846 9.15405C15.2686 9.83456 15.4106 10.582 15.4106 11.3965C15.4106 12.2699 15.2525 13.0576 14.9364 13.7595C14.6256 14.4561 14.1701 14.992 13.57 15.367C12.9752 15.7368 12.3483 15.9216 11.6892 15.9216C11.207 15.9216 10.7729 15.8198 10.3871 15.6162C10.0067 15.4126 9.69324 15.1554 9.44675 14.8446V19H8ZM9.31011 11.509C9.31011 12.6075 9.53248 13.4193 9.97723 13.9444C10.422 14.4695 10.9605 14.7321 11.5928 14.7321C12.2358 14.7321 12.785 14.4615 13.2405 13.9203C13.7013 13.3737 13.9317 12.5298 13.9317 11.3885C13.9317 10.3007 13.7066 9.48627 13.2565 8.94508C12.8118 8.40388 12.2786 8.13329 11.6571 8.13329C11.0409 8.13329 10.4943 8.42264 10.0174 9.00134C9.54588 9.57468 9.31011 10.4106 9.31011 11.509Z"/>
</svg>
