<svg width="24" height="24" viewBox="0 0 24 24" xmlns="http://www.w3.org/2000/svg">
<path d="M10.4922 6.30469H12.0078V12.9219C12.0078 14.0729 11.8776 14.987 11.6172 15.6641C11.3568 16.3411 10.8854 16.8932 10.2031 17.3203C9.52604 17.7422 8.63542 17.9531 7.53125 17.9531C6.45833 17.9531 5.58073 17.7682 4.89844 17.3984C4.21615 17.0286 3.72917 16.4948 3.4375 15.7969C3.14583 15.0938 3 14.1354 3 12.9219V6.30469H4.51562V12.9141C4.51562 13.9089 4.60677 14.6432 4.78906 15.1172C4.97656 15.5859 5.29427 15.9479 5.74219 16.2031C6.19531 16.4583 6.7474 16.5859 7.39844 16.5859C8.51302 16.5859 9.30729 16.3333 9.78125 15.8281C10.2552 15.3229 10.4922 14.3516 10.4922 12.9141V6.30469ZM5.28906 5.60156V4H6.75781V5.60156H5.28906ZM8.20312 5.60156V4H9.67188V5.60156H8.20312Z"/>
<path d="M21.3594 16.4062V17.7578H13.7891C13.7786 17.4193 13.8333 17.0938 13.9531 16.7812C14.1458 16.2656 14.4531 15.7578 14.875 15.2578C15.3021 14.7578 15.9167 14.1797 16.7188 13.5234C17.9635 12.5026 18.8047 11.6953 19.2422 11.1016C19.6797 10.5026 19.8984 9.9375 19.8984 9.40625C19.8984 8.84896 19.6979 8.38021 19.2969 8C18.901 7.61458 18.3828 7.42188 17.7422 7.42188C17.0651 7.42188 16.5234 7.625 16.1172 8.03125C15.7109 8.4375 15.5052 9 15.5 9.71875L14.0547 9.57031C14.1536 8.49219 14.526 7.67188 15.1719 7.10938C15.8177 6.54167 16.6849 6.25781 17.7734 6.25781C18.8724 6.25781 19.7422 6.5625 20.3828 7.17188C21.0234 7.78125 21.3438 8.53646 21.3438 9.4375C21.3438 9.89583 21.25 10.3464 21.0625 10.7891C20.875 11.2318 20.5625 11.6979 20.125 12.1875C19.6927 12.6771 18.9714 13.349 17.9609 14.2031C17.1172 14.9115 16.5755 15.3932 16.3359 15.6484C16.0964 15.8984 15.8984 16.151 15.7422 16.4062H21.3594Z"/>
</svg>
