<svg width="24" height="24" viewBox="0 0 24 24" xmlns="http://www.w3.org/2000/svg">
<path d="M3 17.7812V7.04395H4.4209V11.4531H10.002V7.04395H11.4229V17.7812H10.002V12.7202H4.4209V17.7812H3Z"/>
<path d="M13.2686 14.9468L14.5869 14.771C14.7383 15.5181 14.9946 16.0576 15.356 16.3896C15.7222 16.7168 16.1665 16.8804 16.689 16.8804C17.3091 16.8804 17.8315 16.6655 18.2563 16.2358C18.686 15.8062 18.9009 15.2739 18.9009 14.6392C18.9009 14.0337 18.7031 13.5356 18.3076 13.145C17.9121 12.7495 17.4092 12.5518 16.7988 12.5518C16.5498 12.5518 16.2397 12.6006 15.8687 12.6982L16.0151 11.541C16.103 11.5508 16.1738 11.5557 16.2275 11.5557C16.7891 11.5557 17.2944 11.4092 17.7437 11.1162C18.1929 10.8232 18.4175 10.3716 18.4175 9.76123C18.4175 9.27783 18.2539 8.87744 17.9268 8.56006C17.5996 8.24268 17.1772 8.08398 16.6597 8.08398C16.147 8.08398 15.7197 8.24512 15.3779 8.56738C15.0361 8.88965 14.8164 9.37305 14.7188 10.0176L13.4004 9.7832C13.5615 8.89941 13.9277 8.21582 14.499 7.73242C15.0703 7.24414 15.7808 7 16.6304 7C17.2163 7 17.7559 7.12695 18.249 7.38086C18.7422 7.62988 19.1182 7.97168 19.377 8.40625C19.6406 8.84082 19.7725 9.30225 19.7725 9.79053C19.7725 10.2544 19.6479 10.6768 19.3989 11.0576C19.1499 11.4385 18.7812 11.7412 18.293 11.9658C18.9277 12.1123 19.4209 12.4175 19.7725 12.8813C20.124 13.3403 20.2998 13.9165 20.2998 14.6099C20.2998 15.5474 19.958 16.3433 19.2744 16.9976C18.5908 17.647 17.7266 17.9717 16.6816 17.9717C15.7393 17.9717 14.9556 17.6909 14.3306 17.1294C13.7104 16.5679 13.3564 15.8403 13.2686 14.9468Z"/>
</svg>
