<?xml version="1.0" encoding="utf-8"?>
<!-- Generator: Adobe Illustrator 23.0.3, SVG Export Plug-In . SVG Version: 6.00 Build 0)  -->
<svg version="1.1" xmlns="http://www.w3.org/2000/svg" xmlns:xlink="http://www.w3.org/1999/xlink" x="0px" y="0px"
	 viewBox="0 0 48 48" style="enable-background:new 0 0 48 48;" xml:space="preserve">
<style type="text/css">
	.st0{display:none;}
	.st1{display:inline;}
</style>
<g id="Layer_1">
	<path d="M32,4c-6,0-10,4-10,10C28,14,32,10,32,4z"/>
</g>
<g id="Layer_3" class="st0">
</g>
<g id="Icon">
	<path d="M32,20c3.7,0,6,2.1,6,5.47C38,33.21,33.01,40,30.06,40c-0.25-0.04-0.93-0.35-1.38-0.56c-1.25-0.58-2.8-1.3-4.68-1.3
		s-3.43,0.72-4.68,1.3C18.87,39.65,18.19,39.97,18,40c-3.01,0-8-6.79-8-14.53C10,22.1,12.3,20,16,20c2.44,0,5.29,1.17,6.17,1.62
		L24,22.56l1.83-0.94C26.64,21.2,29.53,20,32,20 M32,16c-4,0-8,2.06-8,2.06S20,16,16,16c-6,0-10,4.01-10,9.47C6,34.74,12,44,18,44
		c2,0,4-1.85,6-1.85S28,44,30,44c6,0,12-9.26,12-18.53C42,20.01,38,16,32,16L32,16z"/>
</g>
</svg>
