<svg width="24" height="24" viewBox="0 0 24 24" xmlns="http://www.w3.org/2000/svg">
<path d="M11.0874 7.87256H12.3188V13.249C12.3188 14.1842 12.2131 14.9269 12.0015 15.4771C11.7899 16.0272 11.4069 16.4757 10.8525 16.8228C10.3024 17.1655 9.57878 17.3369 8.68164 17.3369C7.8099 17.3369 7.09684 17.1867 6.54248 16.8862C5.98812 16.5858 5.59245 16.152 5.35547 15.585C5.11849 15.0137 5 14.235 5 13.249V7.87256H6.23145V13.2427C6.23145 14.0509 6.3055 14.6476 6.45361 15.0327C6.60596 15.4136 6.8641 15.7077 7.22803 15.915C7.59619 16.1224 8.04476 16.2261 8.57373 16.2261C9.47933 16.2261 10.1247 16.0208 10.5098 15.6104C10.8949 15.1999 11.0874 14.4106 11.0874 13.2427V7.87256ZM6.85986 7.30127V6H8.05322V7.30127H6.85986ZM9.22754 7.30127V6H10.4209V7.30127H9.22754Z"/>
<path d="M13.9121 14.7407L15.1118 14.6392C15.2007 15.2231 15.4059 15.6632 15.7275 15.9595C16.0534 16.2515 16.4448 16.3975 16.9019 16.3975C17.452 16.3975 17.9175 16.1901 18.2983 15.7754C18.6792 15.3607 18.8696 14.8105 18.8696 14.125C18.8696 13.4733 18.6855 12.9591 18.3174 12.5825C17.9535 12.2059 17.4753 12.0176 16.8828 12.0176C16.5146 12.0176 16.1825 12.1022 15.8862 12.2715C15.59 12.4365 15.3573 12.6523 15.188 12.9189L14.1152 12.7793L15.0166 7.99951H19.644V9.09131H15.9307L15.4292 11.5923C15.9878 11.203 16.5739 11.0083 17.1875 11.0083C18 11.0083 18.6855 11.2897 19.2441 11.8525C19.8027 12.4154 20.082 13.139 20.082 14.0234C20.082 14.8656 19.8366 15.5934 19.3457 16.207C18.749 16.9603 17.9344 17.3369 16.9019 17.3369C16.0555 17.3369 15.3636 17.0999 14.8262 16.626C14.293 16.152 13.9883 15.5236 13.9121 14.7407Z"/>
</svg>
