<?xml version="1.0" encoding="utf-8"?>
<!-- Generator: Adobe Illustrator 26.0.3, SVG Export Plug-In . SVG Version: 6.00 Build 0)  -->
<svg version="1.1" id="Ebene_1" xmlns="http://www.w3.org/2000/svg" xmlns:xlink="http://www.w3.org/1999/xlink" x="0px" y="0px"
	 viewBox="0 0 1218.9 250" style="enable-background:new 0 0 1218.9 250;" xml:space="preserve">
<style type="text/css">
	.st0{fill:#00003E;}
	.st1{font-family:'AcherusMilitant3-Bold';}
	.st2{font-size:142px;}
	.st3{fill:none;stroke:#FFFFFF;stroke-width:4.2129;stroke-linecap:round;stroke-linejoin:round;stroke-miterlimit:10;}
	.st4{fill:none;stroke:#323035;stroke-width:3.3703;stroke-linecap:round;stroke-linejoin:round;stroke-miterlimit:10;}
	.st5{fill:#00CCFF;stroke:#00003E;stroke-width:4;stroke-linecap:round;stroke-linejoin:round;stroke-miterlimit:10;}
</style>
<path class="st0" d="M164.4,250H0V85.6C0,38.4,38.4,0,85.6,0H250v164.4C250,211.6,211.6,250,164.4,250z"/>
<text transform="matrix(1 0 0 1 337.7744 168.3219)" class="st0 st1 st2">2sxc Patrons</text>
<path class="st3" d="M174.4,77.1c-3.4,7.6-12.2,11-19.8,7.6c-7.6-3.4-11-12.2-7.6-19.8c3.4-7.6,12.2-11,19.8-7.6
	C174.4,60.6,177.8,69.5,174.4,77.1z"/>
<path class="st3" d="M172.5,92.7L172.5,92.7c0,0,26.6-4.6,26.6-4.6c1.4-0.6,3-0.1,3.8,1.1l0,0c1,1.5,0.5,3.5-1,4.4L168,110.8"/>
<line class="st4" x1="161.2" y1="96.4" x2="163.4" y2="99.2"/>
<path class="st3" d="M129.5,113.9L88.3,183c-1.1,2-0.3,4.5,1.7,5.6l0.1,0c1.5,0.8,3.3,0.5,4.6-0.6l48.9-47.6l11.1-22.2l-1.4-25.7
	l-4.9-2.7c-3.4-2.5-7.7-3.2-11.7-2l-25.9,9l-13.7,24.8c-0.7,1.3-0.3,2.9,0.9,3.7l0,0c1.2,0.8,2.9,0.5,3.8-0.6l14.8-18.7l24.1-6"/>
<path class="st3" d="M147.7,144.3l15.7,16.9l-25.1,22.2c-1.5,1.3-3.7,1.2-5.1-0.2l0,0c-1.2-1.3-1.3-3.3-0.2-4.8l11.9-15.3l-7.6-7.7"
	/>
<path class="st5" d="M116.8,87.4L54.3,97.4c-0.7,0.1-1,0.9-0.7,1.5c2.3,4,9.2,17.2,6.1,28.1c-3.6,12.9-10,42.1,20.7,53
	c0.4,0.2,1,0,1.2-0.4l39.3-65.2c0.5-0.8-0.2-1.7-1.1-1.5l-1.3,0.4c-0.2,0.1-0.4,0.2-0.5,0.3l-12.5,15.7c0,0.1-0.1,0.1-0.2,0.2
	c-3.1,2.6-7.7,2.5-10.7-0.1l-0.1-0.1c-2.8-2.5-3.7-6.5-2-9.9l13.8-26.5c0.1-0.2,0.3-0.4,0.5-0.5l10.7-3.3
	C118.4,88.7,117.9,87.2,116.8,87.4z"/>
</svg>
