<?xml version="1.0" encoding="utf-8"?>
<!-- Generator: Adobe Illustrator 26.5.0, SVG Export Plug-In . SVG Version: 6.00 Build 0)  -->
<svg version="1.1" id="Ebene_1" xmlns="http://www.w3.org/2000/svg" xmlns:xlink="http://www.w3.org/1999/xlink" x="0px" y="0px"
	 viewBox="0 0 1218.9 250" style="enable-background:new 0 0 1218.9 250;" xml:space="preserve">
<style type="text/css">
	.st0{fill:#00003E;}
	.st1{enable-background:new    ;}
	.st2{fill:#FFFFFF;}
	.st3{fill:#323035;}
	.st4{fill:#00CCFF;}
</style>
<path class="st0" d="M164.4,250H0V85.6C0,38.4,38.4,0,85.6,0H250v164.4C250,211.6,211.6,250,164.4,250z"/>
<g class="st1">
	<path class="st0" d="M373.4,82.3c-8.2,1.3-13.6,4.4-19.6,10.4c-1.8,1.8-2.7,1.4-4.3-0.3l-6.1-6.5c-1.4-1.7-1.8-2.6-0.3-4.3
		c8.7-8.2,17.6-13.1,30.2-14.3V82.3z M380.5,67.1c27.8,2,38.5,26.7,23,45.4l-44.2,55.8h-15.5c-1,0-1.3-0.3-1.3-1.3v-1.7
		c0-1,0.3-1.3,1.3-2.6l45.9-56.9c8.7-10.6,3-22.2-9.2-23.6V67.1z M380.1,153.7h28.7c2.3,0,3,0.6,3,3v8.7c0,2.3-0.7,3-3,3h-40.3
		L380.1,153.7z"/>
	<path class="st0" d="M448.8,169.6c-7.4-1.1-15.2-2.8-24.1-8.8c-2-1.4-1.7-2.3-0.7-4.3l3.1-5.4c1-2,1.7-3,4-1.3
		c4.8,3.3,10.2,6,17.7,7.1V169.6z M455.9,157.2c8.7-0.7,12.8-4.5,12.8-9.7c0-4.7-6.2-7-17-8.4c-14.8-2-27.7-6.5-27.7-21.7
		c0-13.3,10.5-22.6,28.1-23v12.6c-9.2,0.6-12.8,4.1-12.8,9.5c0,5.5,6.1,7,17,8.5c14.8,1.8,27.7,6.5,27.7,21.6
		c0,13.3-10.9,22.4-28.1,23.1V157.2z M459.2,94.9c6.2,1.1,12.2,2.6,20.9,7.5c2.3,1.4,1.7,2.4,0.9,4.4l-3.1,5.3c-1,2-1.8,2.8-4,1.4
		c-5.3-3.3-9.1-5.1-14.6-6V94.9z"/>
	<path class="st0" d="M561.7,165.3c1.6,2.3,0.9,3-1.4,3h-12.6c-2,0-2.8-0.6-4.4-3L494.5,99c-1.4-2.3-0.7-3,1.4-3h12.8
		c2.1,0,3,0.6,4.4,3L561.7,165.3z M523.2,150.3l-10.1,15.1c-1.4,2.4-2.3,3-4.4,3H496c-2.1,0-2.8-0.7-1.4-3l19.3-27.7L523.2,150.3z
		 M533.2,114.1L543.2,99c1.6-2.6,2.4-3,4.4-3h12.6c2.3,0,3,0.7,1.4,3l-19.2,27.8L533.2,114.1z"/>
	<path class="st0" d="M604.4,109.3c-9.8,1.7-18,10.6-18,23c0,12.1,7.8,21.2,18,22.9v14.6c-19.7-1.8-34.1-18.5-34.1-37.5
		c0-19.2,14.3-35.8,34.1-37.6V109.3z M611.4,94.6c8.4,0.9,16,4,22.7,10.5c1.3,1.3,1,2-0.4,3.7l-5.3,5.7c-1.6,1.7-2.6,2.1-4.3,0.6
		c-4.3-4-8.7-5.3-12.8-6V94.6z M611.4,155.3c5.1-0.9,8.8-2.4,12.8-6c1.8-1.6,2.7-1.1,4.3,0.6l5.3,5.7c1.4,1.7,1.7,2.4,0.4,3.7
		c-6.8,6.5-13.9,9.5-22.7,10.5V155.3z"/>
	<path class="st0" d="M705.4,165.3c-0.1,2.3-0.7,3-3,3h-11.2c-2.4,0-3-0.7-3-3V71.9c0-2.4,0.7-3,3-3h14.2V165.3z M712.6,114.6H725
		c14.8,0,19.6-7,19.6-15.9c0-8.7-4.8-15.5-19.6-15.5h-12.4V68.9h13.1c16.6,0,35.5,6.8,35.5,29.8S742.3,129,725.7,129h-13.1V114.6z"
		/>
	<path class="st0" d="M810.3,166.1c-5.5,2.8-9.7,3.8-16.5,3.8c-12.8,0-24.8-7.8-24.8-23.7c0-15.5,12.2-22.9,27.5-22.9
		c4.4,0,8,0.6,13.8,1.7v11.2c-4.3-1.1-6.8-1.4-9.9-1.4c-10.8,0-15.3,4.8-15.3,11.4c0,5.5,4.1,11.4,13.9,11.4c4.3,0,7.7-1.4,11.4-3.7
		V166.1z M817.4,127c0-13.3-3.4-18.6-16.5-18.6c-8.1,0-15.6,1.1-20.9,2.1c-2.3,0.3-2.8-0.6-3.4-2.8l-1.7-6.8
		c-0.6-2.3-0.3-3.1,1.8-3.7c1.7-0.4,14.3-2.7,24.8-2.7c27.1,0,31.9,11.9,31.9,34.4v36.5c0,2.3-0.6,3-3,3H822c-2,0-3.1-1-4.5-3V127z"
		/>
	<path class="st0" d="M851.9,109c-2.3,0-3-0.7-3-3v-7c0-2.3,0.7-3,3-3h5.3V82.1c0-2.3,0.6-3,3-3h10.1c2.3,0,3,0.7,3,3V96h21.9
		c2.3,0,3,0.7,3,3.1v6.8c0,2.3-0.7,3-3,3H851.9z M873.2,116.2v21.3c0,12.8,4.4,17.9,13.1,17.9c3.1,0,5.5-0.3,8.5-1.7
		c2.7-1.4,3.3-1.3,3.8,1.7l1.3,7.1c0.4,2.1,0.3,2.8-1.6,3.8c-5.7,3.5-11.9,3.5-13.8,3.5c-18.7,0-27.4-11.8-27.4-31.4v-22.3H873.2z"
		/>
	<path class="st0" d="M934.2,165.3c-0.1,2.3-0.7,3-3,3H921c-2.3,0-3-0.7-3-3V99c0-2.3,0.7-3,3-3h5.1c4.4,0,5,0.9,8.1,4.4V165.3z
		 M941.3,99.6c3.8-2.7,8.9-5.1,18.6-5.1c2.8,0,3.1,0.9,2.8,2.8l-1.6,10.4c-0.4,2.3-1.1,2.8-3.4,2.8c-7,0-12.1,1.8-16.5,5.5V99.6z"/>
	<path class="st0" d="M1003.7,169.7c-18.7-1.8-33.9-17.8-33.9-37.5c0-19.9,15.3-35.9,33.9-37.6v14.8c-10.2,1.8-17.9,11.1-17.9,22.9
		c0,12.2,8.1,21.3,17.9,23V169.7z M1010.8,155.3c10.2-1.7,18-11.1,18-23c0-11.9-8-21.3-18-22.9V94.6c19.2,2,34.1,18,34.1,37.6
		c0,19.5-14.8,35.6-34.1,37.5V155.3z"/>
	<path class="st0" d="M1079.6,165.3c0,2.3-0.7,3-3,3h-10.2c-2.3,0-3-0.7-3-3V99c0-2.3,0.7-3,3-3h5.1c2.7,0,4.4,0.4,5.5,1.7l2.6,4
		V165.3z M1086.7,98.3c3.4-2.6,7.7-3.8,12.9-3.8c15.6,0,27.5,8.4,27.5,32.8v38.1c0,2.3-0.7,3-3,3h-10.2c-2.3,0-3-0.7-3-3v-34.5
		c0-15.1-5.5-21.9-15.5-21.9c-4.1,0-6.7,1.4-8.8,3.3V98.3z"/>
	<path class="st0" d="M1168.2,169.6c-7.4-1.1-15.2-2.8-24.1-8.8c-2-1.4-1.7-2.3-0.7-4.3l3.1-5.4c1-2,1.7-3,4-1.3
		c4.8,3.3,10.2,6,17.7,7.1V169.6z M1175.3,157.2c8.7-0.7,12.8-4.5,12.8-9.7c0-4.7-6.2-7-17-8.4c-14.8-2-27.7-6.5-27.7-21.7
		c0-13.3,10.5-22.6,28.1-23v12.6c-9.2,0.6-12.8,4.1-12.8,9.5c0,5.5,6.1,7,17,8.5c14.8,1.8,27.7,6.5,27.7,21.6
		c0,13.3-10.9,22.4-28.1,23.1V157.2z M1178.5,94.9c6.2,1.1,12.2,2.6,20.9,7.5c2.3,1.4,1.7,2.4,0.9,4.4l-3.1,5.3c-1,2-1.8,2.8-4,1.4
		c-5.3-3.3-9.1-5.1-14.6-6V94.9z"/>
</g>
<path class="st2" d="M160.7,88.1c-2.4,0-4.8-0.5-7-1.5c-8.6-3.9-12.5-14-8.7-22.6c1.9-4.2,5.2-7.4,9.5-9c4.3-1.6,8.9-1.5,13.1,0.4
	c4.2,1.8,7.4,5.1,9,9.4c1.7,4.3,1.5,9-0.3,13.2c-1.9,4.2-5.2,7.4-9.5,9C164.9,87.8,162.8,88.1,160.7,88.1z M160.7,58.1
	c-1.5,0-3.1,0.3-4.6,0.9c-3.2,1.2-5.7,3.7-7.2,6.8c-2.9,6.5,0,14.1,6.5,17c3.2,1.4,6.7,1.5,9.9,0.3c3.2-1.2,5.7-3.7,7.2-6.8
	c1.4-3.2,1.5-6.7,0.3-9.9c-1.2-3.2-3.6-5.7-6.8-7.1C164.3,58.5,162.5,58.1,160.7,58.1z"/>
<path class="st2" d="M168,112.9c-0.8,0-1.5-0.4-1.9-1.2c-0.5-1-0.1-2.3,0.9-2.8l33.8-17.2c0.2-0.1,0.4-0.4,0.4-0.6
	c0-0.2,0.1-0.5-0.1-0.8c-0.3-0.4-0.8-0.5-1.2-0.3c-0.2,0.1-0.3,0.1-0.5,0.1l-26.6,4.6c-1.1,0.2-2.2-0.6-2.4-1.7s0.6-2.2,1.7-2.4
	l26.4-4.6c2.3-0.8,4.8,0,6.1,2c0.8,1.2,1.1,2.6,0.7,4c-0.3,1.4-1.2,2.6-2.4,3.3c0,0-0.1,0-0.1,0.1L169,112.7
	C168.6,112.8,168.3,112.9,168,112.9z"/>
<path class="st3" d="M163.4,100.9c-0.5,0-1-0.2-1.3-0.6l-2.2-2.8c-0.6-0.7-0.4-1.8,0.3-2.4c0.7-0.6,1.8-0.4,2.4,0.3l2.2,2.8
	c0.6,0.7,0.4,1.8-0.3,2.4C164.1,100.8,163.8,100.9,163.4,100.9z"/>
<path class="st2" d="M91.9,191.2c-0.8,0-1.7-0.2-2.4-0.5c-0.2,0-0.3-0.1-0.5-0.2c-1.5-0.8-2.5-2.1-3-3.7c-0.5-1.6-0.3-3.3,0.5-4.8
	l41.2-69.2c0.6-1,1.9-1.3,2.9-0.7c1,0.6,1.3,1.9,0.7,2.9l-41.2,69.1c-0.5,0.8-0.2,1.9,0.7,2.5c0.1,0,0.2,0.1,0.3,0.1
	c0.7,0.4,1.5,0.2,2.2-0.3l48.6-47.3l10.7-21.4l-1.3-24l-3.9-2.1c-0.1,0-0.2-0.1-0.2-0.1c-2.8-2.1-6.4-2.7-9.8-1.7l-25.1,8.7
	l-13.3,24.1c-0.2,0.3-0.1,0.7,0.2,0.9c0.3,0.2,0.8,0.1,1-0.2l14.8-18.7c0.3-0.4,0.7-0.6,1.1-0.7l24.1-6c1.1-0.3,2.3,0.4,2.6,1.5
	c0.3,1.1-0.4,2.3-1.5,2.6l-23.4,5.8L103.5,126c-1.6,2-4.5,2.4-6.6,1c-2.1-1.4-2.8-4.2-1.6-6.5L109,95.8c0.3-0.5,0.7-0.8,1.2-1
	l25.9-9c4.7-1.4,9.6-0.6,13.5,2.2l4.8,2.6c0.6,0.4,1,1,1.1,1.7l1.4,25.7c0,0.4-0.1,0.7-0.2,1.1l-11.1,22.2c-0.1,0.2-0.2,0.4-0.4,0.6
	l-48.9,47.6c0,0-0.1,0.1-0.1,0.1C94.9,190.6,93.4,191.2,91.9,191.2z"/>
<path class="st2" d="M135.9,186.4c-1.5,0-3-0.6-4.1-1.7c-1.9-2.1-2.1-5.2-0.4-7.5l10.8-13.9l-6.3-6.4c-0.8-0.8-0.8-2.2,0-3
	c0.8-0.8,2.2-0.8,3,0l7.6,7.7c0.7,0.8,0.8,1.9,0.2,2.8l-11.9,15.3c-0.5,0.6-0.4,1.5,0.1,2.1c0.6,0.6,1.5,0.6,2.2,0l23.5-20.8
	l-14.2-15.3c-0.8-0.9-0.7-2.2,0.1-3c0.9-0.8,2.2-0.7,3,0.1l15.7,16.9c0.4,0.4,0.6,1,0.6,1.5c0,0.6-0.3,1.1-0.7,1.5L139.7,185
	C138.6,185.9,137.2,186.4,135.9,186.4z"/>
<g>
	<path class="st4" d="M116.8,87.4l-62.5,10c-0.7,0.1-1,0.9-0.7,1.5c2.3,4,9.2,17.2,6.1,28.1c-3.6,12.9-10,42.1,20.7,53
		c0.4,0.2,1,0,1.2-0.4l39.3-65.2c0.5-0.8-0.2-1.7-1.1-1.5l-1.3,0.4c-0.2,0.1-0.4,0.2-0.5,0.3l-12.5,15.7c0,0.1-0.1,0.1-0.2,0.2
		c-3.1,2.6-7.7,2.5-10.7-0.1l-0.1-0.1c-2.8-2.5-3.7-6.5-2-9.9l13.8-26.5c0.1-0.2,0.3-0.4,0.5-0.5l10.7-3.3
		C118.4,88.7,117.9,87.2,116.8,87.4z"/>
	<path class="st0" d="M80.8,182.1c-0.4,0-0.8-0.1-1.1-0.2c-22.5-8-29.9-26.7-21.9-55.4c2.9-10.1-3.8-22.9-5.9-26.6
		c0,0,0-0.1-0.1-0.1c-0.4-0.9-0.4-1.9,0-2.8c0.4-0.8,1.2-1.4,2.2-1.5l62.5-10c1.5-0.3,2.9,0.6,3.4,2.1c0.4,1.4-0.2,2.8-1.5,3.4
		c-0.1,0-0.1,0.1-0.2,0.1l-10.2,3.1l-13.6,26.2c-1.3,2.5-0.6,5.5,1.6,7.5c0,0,0.1,0.1,0.1,0.1l0,0c2.3,1.9,5.7,2,8,0.1c0,0,0,0,0,0
		l12.5-15.6c0-0.1,0.1-0.1,0.2-0.2c0.3-0.3,0.7-0.5,1-0.7c0.1,0,0.2-0.1,0.3-0.1l1.3-0.4c0.1,0,0.1,0,0.2,0c1.2-0.3,2.5,0.2,3.2,1.2
		c0.7,1,0.7,2.3,0.1,3.3l-39.3,65.1c-0.3,0.6-0.9,1.1-1.6,1.3C81.4,182,81.1,182.1,80.8,182.1z M56,99.1c3.2,5.8,8.6,17.9,5.6,28.4
		c-7.4,26.4-1.3,42.9,18.7,50.3l34-56.4l-7.1,8.9c-0.1,0.2-0.4,0.5-0.7,0.7c-3.8,3.2-9.5,3.1-13.3-0.1c0,0-0.1-0.1-0.1-0.1l-0.1-0.1
		c-3.5-3.2-4.5-8.1-2.4-12.2L104.5,92c0.1-0.2,0.3-0.5,0.5-0.7L56,99.1z M106.7,130.9C106.7,130.9,106.7,130.9,106.7,130.9
		C106.7,130.9,106.7,130.9,106.7,130.9z M103.5,129.3C103.5,129.3,103.5,129.3,103.5,129.3C103.5,129.3,103.5,129.3,103.5,129.3z
		 M103.5,129.3C103.5,129.3,103.5,129.3,103.5,129.3C103.5,129.3,103.5,129.3,103.5,129.3z M103.5,129.3L103.5,129.3L103.5,129.3z
		 M119.2,113.4C119.2,113.4,119.2,113.4,119.2,113.4L119.2,113.4z M54.6,99.4L54.6,99.4C54.6,99.4,54.6,99.4,54.6,99.4z M108.1,93.8
		L108.1,93.8C108.1,93.8,108.1,93.8,108.1,93.8z M117.2,89.4C117.2,89.4,117.2,89.4,117.2,89.4C117.2,89.4,117.2,89.4,117.2,89.4z"
		/>
</g>
</svg>
