<svg width="24" height="24" viewBox="0 0 24 24" xmlns="http://www.w3.org/2000/svg">
<path d="M2.98187 13.2188C3.38292 13.2083 3.70844 13.1016 3.95844 12.8984C4.21365 12.6901 4.38292 12.4062 4.46625 12.0469C4.54958 11.6875 4.59385 11.0729 4.59906 10.2031C4.60427 9.33333 4.6199 8.76042 4.64594 8.48438C4.69281 8.04688 4.77875 7.69531 4.90375 7.42969C5.03396 7.16406 5.19281 6.95312 5.38031 6.79688C5.56781 6.63542 5.8074 6.51302 6.09906 6.42969C6.29698 6.3776 6.6199 6.35156 7.06781 6.35156H7.50531V7.57812H7.26312C6.72146 7.57812 6.36208 7.67708 6.185 7.875C6.00792 8.06771 5.91937 8.5026 5.91937 9.17969C5.91937 10.5443 5.89073 11.4062 5.83344 11.7656C5.73969 12.3229 5.57823 12.7526 5.34906 13.0547C5.1251 13.3568 4.77094 13.625 4.28656 13.8594C4.85948 14.099 5.27354 14.4661 5.52875 14.9609C5.78917 15.4505 5.91937 16.2552 5.91937 17.375C5.91937 18.3906 5.92979 18.9948 5.95062 19.1875C5.99229 19.5417 6.09646 19.7891 6.26312 19.9297C6.435 20.0703 6.76833 20.1406 7.26312 20.1406H7.50531V21.3672H7.06781C6.5574 21.3672 6.1876 21.3255 5.95844 21.2422C5.6251 21.1224 5.34906 20.9271 5.13031 20.6562C4.91156 20.3906 4.76833 20.0521 4.70062 19.6406C4.63812 19.2292 4.60427 18.5547 4.59906 17.6172C4.59385 16.6797 4.54958 16.0312 4.46625 15.6719C4.38292 15.3125 4.21365 15.0286 3.95844 14.8203C3.70844 14.612 3.38292 14.5026 2.98187 14.4922V13.2188ZM8.05344 18V16.3984H9.655V18H8.05344ZM11.2266 18V16.3984H12.8281V18H11.2266ZM14.3997 18V16.3984H16.0012V18H14.3997ZM21.0103 13.2188V14.4922C20.6093 14.5026 20.2811 14.612 20.0259 14.8203C19.7759 15.0286 19.6093 15.3125 19.5259 15.6719C19.4426 16.026 19.3983 16.638 19.3931 17.5078C19.3879 18.3776 19.3723 18.9505 19.3462 19.2266C19.2994 19.6693 19.2108 20.0208 19.0806 20.2812C18.9556 20.5469 18.7994 20.7578 18.6119 20.9141C18.4244 21.0755 18.1848 21.1979 17.8931 21.2812C17.6952 21.3385 17.3723 21.3672 16.9244 21.3672H16.4869V20.1406H16.7291C17.2707 20.1406 17.6301 20.0417 17.8072 19.8438C17.9843 19.651 18.0728 19.2135 18.0728 18.5312C18.0728 17.2292 18.0962 16.4036 18.1431 16.0547C18.2265 15.4766 18.3931 15.0156 18.6431 14.6719C18.8931 14.3229 19.2473 14.0521 19.7056 13.8594C19.1067 13.5729 18.6848 13.1953 18.44 12.7266C18.1952 12.2526 18.0728 11.4557 18.0728 10.3359C18.0728 9.32031 18.0598 8.71354 18.0337 8.51562C17.9973 8.16667 17.8931 7.92448 17.7212 7.78906C17.5546 7.64844 17.2239 7.57812 16.7291 7.57812H16.4869V6.35156H16.9244C17.4348 6.35156 17.8046 6.39323 18.0337 6.47656C18.3671 6.59115 18.6431 6.78385 18.8619 7.05469C19.0806 7.32552 19.2212 7.66667 19.2837 8.07812C19.3515 8.48958 19.3879 9.16406 19.3931 10.1016C19.3983 11.0391 19.4426 11.6875 19.5259 12.0469C19.6093 12.401 19.7759 12.6823 20.0259 12.8906C20.2811 13.099 20.6093 13.2083 21.0103 13.2188Z"/>
</svg>
